<?xml version="1.0" standalone="no"?>
<!DOCTYPE svg PUBLIC "-//W3C//DTD SVG 20010904//EN"
 "http://www.w3.org/TR/2001/REC-SVG-20010904/DTD/svg10.dtd">
<svg version="1.0" xmlns="http://www.w3.org/2000/svg"
 viewBox="0 0 256.000000 256.000000"
 preserveAspectRatio="xMidYMid meet">

<g transform="translate(0.000000,256.000000) scale(0.100000,-0.100000)"
 stroke="none">
<path d="M296 2184 c-9 -8 -16 -20 -16 -25 0 -13 -229 -1694 -236 -1735 -4
-21 0 -36 11 -47 15 -15 64 -17 505 -17 431 0 490 2 504 16 9 8 16 20 16 25 0
13 229 1694 236 1735 4 21 0 36 -11 47 -15 15 -64 17 -505 17 -431 0 -490 -2
-504 -16z m827 -886 c-62 -453 -112 -831 -113 -840 0 -17 -28 -18 -443 -18
l-443 0 113 823 c62 452 112 830 113 840 0 16 28 17 443 17 l443 0 -113 -822z"/>
<path d="M1393 1993 c-19 -7 -16 -60 3 -67 9 -3 235 -6 502 -6 l487 0 -180
-180 -180 -180 -337 0 c-185 0 -343 -3 -352 -6 -21 -8 -21 -60 0 -68 9 -3 174
-6 367 -6 l351 0 193 192 193 192 0 -44 0 -45 -207 -207 -208 -208 -359 -2
c-329 -3 -360 -4 -370 -20 -8 -13 -8 -23 0 -35 10 -17 42 -18 384 -21 l374 -2
193 192 193 192 0 -44 0 -45 -207 -207 -208 -208 -374 -2 c-343 -3 -375 -4
-385 -20 -8 -13 -8 -23 0 -35 10 -17 42 -18 399 -21 l389 -2 193 192 193 192
0 -44 0 -45 -208 -208 -207 -207 -382 0 c-334 0 -384 -2 -397 -16 -9 -8 -16
-19 -16 -24 0 -5 7 -16 16 -24 13 -14 65 -16 412 -16 l396 0 193 192 193 192
0 -44 0 -45 -208 -208 -207 -207 -392 0 c-215 0 -398 -3 -407 -6 -9 -4 -16
-18 -16 -34 0 -16 7 -30 16 -34 9 -3 199 -6 422 -6 l407 0 232 233 233 232 0
416 c0 309 -3 418 -12 427 -9 9 -146 12 -558 11 -300 0 -551 -3 -557 -6z"/>
</g>
</svg>
