<?xml version="1.0" standalone="no"?>
<!DOCTYPE svg PUBLIC "-//W3C//DTD SVG 20010904//EN"
 "http://www.w3.org/TR/2001/REC-SVG-20010904/DTD/svg10.dtd">
<svg version="1.0" xmlns="http://www.w3.org/2000/svg"
viewBox="0 0 256.000000 256.000000"
 preserveAspectRatio="xMidYMid meet">

<g transform="translate(0.000000,256.000000) scale(0.100000,-0.100000)"
 stroke="none">
<path d="M633 2073 l-633 -276 0 -37 c0 -43 10 -50 71 -50 l39 0 0 -733 c0
-557 3 -736 12 -745 15 -15 61 -15 76 0 9 9 12 188 12 745 l0 733 1070 0 1070
0 0 -733 c0 -557 3 -736 12 -745 7 -7 24 -12 38 -12 14 0 31 5 38 12 9 9 12
188 12 745 l0 733 39 0 c61 0 71 7 71 49 0 31 -5 40 -27 50 -160 73 -1246 541
-1256 540 -6 0 -297 -124 -644 -276z"/>
<path d="M340 1580 c-18 -18 -20 -33 -20 -160 l0 -140 265 0 265 0 0 143 c0
179 1 177 -123 177 l-87 0 0 -39 c0 -40 -25 -71 -57 -71 -25 0 -53 39 -53 75
l0 35 -85 0 c-72 0 -88 -3 -105 -20z"/>
<path d="M980 1580 c-18 -18 -20 -33 -20 -160 l0 -140 265 0 265 0 0 143 c0
179 1 177 -123 177 l-87 0 0 -39 c0 -40 -25 -71 -57 -71 -25 0 -53 39 -53 75
l0 35 -85 0 c-72 0 -88 -3 -105 -20z"/>
<path d="M320 960 l0 -210 265 0 265 0 0 210 0 210 -105 0 -105 0 0 -38 c0
-45 -14 -62 -50 -62 -35 0 -60 29 -60 68 l0 32 -105 0 -105 0 0 -210z"/>
<path d="M960 960 l0 -210 265 0 265 0 0 210 0 210 -105 0 -105 0 0 -38 c0
-45 -14 -62 -50 -62 -35 0 -60 29 -60 68 l0 32 -105 0 -105 0 0 -210z"/>
<path d="M1617 1152 c-15 -16 -17 -46 -17 -210 l0 -192 265 0 265 0 0 198 c0
141 -3 201 -12 210 -8 8 -46 12 -105 12 l-93 0 0 -38 c0 -45 -14 -62 -50 -62
-35 0 -60 29 -60 68 l0 32 -88 0 c-73 0 -92 -3 -105 -18z"/>
<path d="M320 447 c0 -146 3 -198 14 -212 12 -17 31 -18 250 -17 168 0 241 4
252 12 11 10 14 50 14 211 l0 199 -105 0 -105 0 0 -39 c0 -40 -25 -71 -57 -71
-25 0 -53 39 -53 75 l0 35 -105 0 -105 0 0 -193z"/>
<path d="M960 447 c0 -148 3 -198 14 -212 12 -17 30 -19 250 -18 169 1 241 5
252 13 11 10 14 50 14 211 l0 199 -105 0 -105 0 0 -39 c0 -40 -25 -71 -57 -71
-25 0 -53 39 -53 75 l0 35 -105 0 -105 0 0 -193z"/>
<path d="M1600 447 c0 -144 3 -198 13 -211 12 -17 34 -18 250 -19 180 0 239 2
251 12 14 11 16 44 16 212 l0 199 -105 0 -105 0 0 -39 c0 -40 -25 -71 -57 -71
-25 0 -53 39 -53 75 l0 35 -105 0 -105 0 0 -193z"/>
</g>
</svg>
