<?xml version="1.0" standalone="no"?>
<!DOCTYPE svg PUBLIC "-//W3C//DTD SVG 20010904//EN"
 "http://www.w3.org/TR/2001/REC-SVG-20010904/DTD/svg10.dtd">
<svg version="1.0" xmlns="http://www.w3.org/2000/svg"
viewBox="0 0 256.000000 256.000000"
 preserveAspectRatio="xMidYMid meet">

<g transform="translate(0.000000,256.000000) scale(0.100000,-0.100000)"
 stroke="none">
<path d="M966 2544 c-98 -24 -186 -77 -268 -162 -159 -165 -258 -390 -315
-717 -25 -147 -25 -606 0 -760 47 -282 119 -482 233 -641 86 -121 191 -196
328 -236 78 -22 95 -23 436 -23 l355 0 53 30 c188 104 329 417 394 880 18 122
17 609 0 735 -65 462 -210 778 -404 882 -42 23 -48 23 -398 25 -280 1 -367 -1
-414 -13z m769 -83 c142 -64 259 -282 330 -616 42 -198 50 -287 50 -565 0
-278 -8 -367 -50 -565 -71 -334 -188 -552 -330 -616 -58 -27 -220 -26 -307 1
-84 26 -172 83 -231 151 l-47 54 32 15 c38 18 46 41 22 65 -16 16 -30 16 -85
-1 -17 -5 -19 0 -75 126 l-34 75 53 15 c43 13 52 20 55 41 5 39 -18 52 -68 39
-23 -6 -48 -9 -55 -6 -15 5 -50 148 -42 169 3 7 29 19 58 25 60 14 79 27 79
52 0 36 -25 44 -92 27 -34 -9 -64 -15 -65 -13 -2 1 -6 43 -9 92 l-7 90 67 18
c67 19 92 40 80 70 -9 24 -36 27 -90 11 -27 -8 -52 -15 -56 -15 -5 0 -8 42 -8
94 l0 94 67 16 c75 19 93 30 93 56 0 36 -25 44 -91 27 l-61 -15 6 71 c10 106
8 104 94 129 66 20 78 27 80 48 6 39 -20 50 -81 34 -28 -7 -53 -11 -56 -8 -8
8 38 177 50 185 6 3 36 12 67 19 64 14 82 25 82 50 0 33 -26 44 -75 33 -33 -7
-45 -7 -45 1 0 6 18 45 38 86 40 78 41 79 129 100 63 16 70 73 10 82 -20 4
-18 8 23 47 53 51 116 89 185 113 72 25 255 24 310 -1z m-758 -35 c-35 -28
-71 -47 -105 -56 -43 -10 -53 -17 -59 -38 -4 -18 -1 -29 13 -39 18 -13 18 -15
1 -41 -10 -15 -32 -55 -49 -89 -31 -60 -33 -62 -86 -75 -30 -7 -60 -21 -66
-31 -17 -26 5 -52 43 -52 17 0 31 -4 31 -10 0 -5 -11 -44 -23 -85 l-23 -75
-55 -20 c-56 -22 -71 -44 -48 -71 9 -11 23 -14 47 -10 l34 5 -5 -37 c-4 -20
-9 -63 -13 -94 l-7 -58 -45 -12 c-52 -15 -73 -39 -56 -65 9 -13 23 -17 53 -15
l41 2 -1 -42 c0 -24 -4 -65 -7 -92 -7 -47 -9 -50 -42 -59 -60 -15 -75 -40 -44
-71 11 -12 26 -14 55 -10 l39 7 0 -65 c0 -36 3 -79 6 -95 6 -29 4 -31 -39 -42
-81 -20 -73 -89 9 -77 l42 5 16 -91 c9 -50 16 -91 14 -93 -2 -1 -19 -6 -38
-11 -27 -7 -36 -15 -38 -35 -4 -38 21 -55 62 -42 l34 11 37 -105 37 -105 -21
-14 c-42 -30 -16 -81 36 -70 26 6 30 2 57 -46 16 -29 68 -92 115 -139 l87 -86
-40 9 c-256 58 -435 341 -513 813 -28 171 -25 594 5 766 51 284 138 488 269
630 84 90 198 157 271 159 19 0 14 -7 -31 -44z m237 5 c-27 -22 -67 -62 -88
-90 l-40 -50 -26 19 c-51 36 -52 42 -4 79 49 37 146 80 183 81 21 0 17 -5 -25
-39z m-201 -184 l28 -23 -49 -101 -48 -100 -57 28 c-31 16 -57 34 -57 41 0 15
44 91 87 150 38 52 40 52 96 5z m-96 -301 c3 -3 -45 -187 -50 -193 -3 -2 -34
12 -70 33 l-65 37 14 51 c8 28 22 70 30 93 l15 43 62 -31 c34 -17 63 -32 64
-33z m-65 -290 c0 -3 -3 -44 -7 -91 -8 -97 -2 -94 -101 -48 -61 28 -61 26 -42
145 l11 78 70 -39 c38 -21 69 -41 69 -45z m-24 -354 c1 -51 1 -92 -2 -92 -3 0
-40 16 -82 35 l-77 35 7 46 c3 26 6 66 6 90 l0 43 73 -32 72 -33 3 -92z m-64
-153 l73 -31 6 -81 c3 -45 4 -84 2 -86 -2 -2 -37 9 -78 24 -72 26 -75 28 -81
63 -7 46 -8 142 -1 142 3 0 38 -14 79 -31z m25 -267 l75 -27 18 -84 c10 -47
16 -87 14 -89 -6 -5 -137 38 -152 50 -7 5 -17 39 -24 76 -6 37 -14 75 -17 85
-6 22 -3 21 86 -11z m67 -275 l69 -24 28 -69 c16 -38 33 -79 37 -91 l9 -21
-77 24 c-42 13 -80 24 -84 24 -7 0 -68 152 -68 170 0 14 7 13 86 -13z m135
-287 c55 -17 71 -26 93 -59 15 -22 57 -67 92 -102 64 -60 64 -62 32 -55 -93
18 -226 111 -290 203 -25 37 -27 44 -12 39 11 -3 49 -15 85 -26z"/>
<path d="M1385 2384 c-33 -35 -118 -210 -150 -307 -76 -231 -109 -464 -108
-782 0 -249 12 -382 54 -590 53 -261 199 -582 261 -573 32 5 46 33 29 60 -95
150 -143 259 -186 423 -119 459 -108 1043 28 1441 34 98 86 210 126 269 26 38
26 61 2 75 -27 14 -29 13 -56 -16z"/>
<path d="M1645 2122 c-139 -85 -232 -385 -242 -782 -6 -225 9 -369 57 -554 48
-187 112 -300 191 -342 36 -18 102 -18 138 0 205 107 313 750 210 1261 -44
219 -122 375 -210 420 -39 20 -108 19 -144 -3z m134 -88 c61 -51 123 -215 158
-419 24 -140 24 -519 0 -660 -24 -140 -52 -238 -92 -322 -119 -246 -260 -114
-342 320 -25 131 -25 533 0 664 66 350 170 507 276 417z"/>
<path d="M1581 1641 c-18 -18 -18 -20 0 -107 27 -124 28 -368 3 -479 -10 -44
-18 -98 -18 -120 -1 -36 2 -40 26 -43 32 -4 41 10 62 101 26 109 36 262 26
387 -7 101 -14 142 -35 237 -8 35 -40 48 -64 24z"/>
</g>
</svg>
