<?xml version="1.0" standalone="no"?>
<!DOCTYPE svg PUBLIC "-//W3C//DTD SVG 20010904//EN"
 "http://www.w3.org/TR/2001/REC-SVG-20010904/DTD/svg10.dtd">
<svg version="1.0" xmlns="http://www.w3.org/2000/svg"
 viewBox="0 0 256.000000 256.000000"
 preserveAspectRatio="xMidYMid meet">

<g transform="translate(0.000000,256.000000) scale(0.100000,-0.100000)"
stroke="none">
<path d="M599 1953 c-153 -153 -280 -288 -284 -301 -6 -21 14 -44 146 -178
118 -119 159 -154 179 -154 20 0 85 59 308 283 170 170 282 290 282 302 0 11
-64 83 -152 172 -116 116 -158 153 -177 153 -20 0 -87 -62 -302 -277z"/>
<path d="M1755 2106 c-57 -18 -82 -33 -132 -79 -74 -68 -113 -173 -113 -305 0
-58 -23 -109 -70 -157 l-40 -41 120 -119 120 -119 42 41 c54 53 80 62 198 73
115 10 175 35 242 101 53 53 91 123 113 204 14 56 12 85 -7 85 -6 0 -69 -34
-142 -75 -73 -41 -141 -75 -152 -75 -81 0 -184 185 -136 243 7 9 72 49 143 89
150 85 159 101 74 130 -60 20 -201 23 -260 4z"/>
<path d="M1022 1527 c-61 -62 -112 -119 -112 -127 0 -20 1051 -1070 1071
-1070 8 0 66 51 128 114 95 97 111 117 102 133 -14 26 -1055 1063 -1066 1063
-6 0 -61 -51 -123 -113z"/>
<path d="M994 1119 c-33 -37 -74 -51 -177 -60 -72 -7 -118 -17 -160 -36 -106
-48 -202 -182 -214 -299 -5 -48 -4 -54 13 -54 10 0 78 34 150 75 106 61 137
75 158 69 38 -9 103 -88 122 -148 25 -80 17 -91 -140 -181 -95 -54 -136 -83
-136 -95 0 -30 89 -55 195 -55 118 1 189 28 261 99 64 65 90 132 103 265 10
105 23 141 65 181 l27 24 -118 118 c-65 65 -120 118 -124 118 -3 0 -14 -9 -25
-21z"/>
</g>
</svg>
